<svg id="Layer_1" enable-background="new 0 0 512.001 512.001" height="512" viewBox="0 0 512.001 512.001" width="512" xmlns="http://www.w3.org/2000/svg"><g><g><path d="m511.927 500.789-60.002-492c-.612-5.017-4.872-8.789-9.927-8.789h-371.995c-5.055 0-9.314 3.771-9.927 8.789l-60.003 492c-.347 2.843.542 5.696 2.439 7.84 1.899 2.144 4.625 3.371 7.488 3.371h492c2.863 0 5.589-1.228 7.487-3.371s2.787-4.997 2.44-7.84zm-252.425-480.789v40h-20v-40zm-180.644 0h20.976l-18.11 190.256c-.523 5.498 3.51 10.379 9.008 10.902.322.03.642.046.959.046 5.096 0 9.451-3.878 9.943-9.054l18.291-192.15h99.578v50c0 5.522 4.478 10 10 10h40c5.522 0 10-4.478 10-10v-50h112.575l44.927 472h-362.007l18.109-190.255c.523-5.498-3.51-10.379-9.008-10.902-5.499-.512-10.38 3.509-10.902 9.008l-18.29 192.149h-33.613zm378.237 472-44.927-472h20.976l57.563 472z"/><path d="m229.502 260.002h40c5.522 0 10-4.478 10-10v-120c0-5.522-4.478-10-10-10h-40c-5.522 0-10 4.478-10 10v120c0 5.523 4.478 10 10 10zm10-120h20v100h-20z"/><path d="m229.502 460.005h40c5.522 0 10-4.478 10-10v-140.001c0-5.522-4.478-10-10-10h-40c-5.522 0-10 4.478-10 10v140.001c0 5.523 4.478 10 10 10zm10-140.001h20v120.001h-20z"/><path d="m87.415 266c5.522 0 10-4.478 10-10s-4.478-10-10-10h-.007c-5.522 0-9.996 4.478-9.996 10s4.481 10 10.003 10z"/></g></g></svg>